<svg xmlns="http://www.w3.org/2000/svg" xmlns:xlink="http://www.w3.org/1999/xlink" width="632" height="163" viewBox="0 0 632 163">
  <defs>
    <polygon id="transmit_logo_upd-a" points="0 163 632 163 632 0 0 0"/>
  </defs>
  <g fill="none" fill-rule="evenodd">
    <path fill="#1C2644" d="M110.891929 31.9271111L112.237408 40.3757338C117.917423 31.3337986 125.541599 30 133.015794 30 140.639348 30 147.964183 32.9647153 152 36.9658032L143.778696 52.6773472C140.041599 49.5648426 136.603221 47.9348495 130.623865 47.9348495 121.056771 47.9348495 112.237408 52.9744653 112.237408 66.4620879L112.237408 105 94 105 94 31.9271111 110.891929 31.9271111zM173.014708 68.2036482C173.014708 82.1221958 182.612839 90.414391 194.57377 90.414391 222.925234 90.414391 222.925234 46.140854 194.57377 46.140854 182.612839 46.140854 173.014708 54.2851006 173.014708 68.2036482L173.014708 68.2036482zM216.723303 31.7784607L234 31.7784607 234 104.777707 217.018692 104.777707 216.132833 94.1167966C211.998008 102.704581 200.62816 106.850833 192.506358 106.998781 170.947295 107.14673 155 93.8208995 155 68.2036482 155 43.0311655 171.685613 29.8532836 192.949594 30.0012322 202.694959 30.0012322 211.998008 34.5910217 216.132833 41.8466541L216.723303 31.7784607zM305.999847 105L305.999847 66.8923717C305.999847 55.8139413 299.950861 47.3947392 288.442863 47.3947392 277.377114 47.3947392 269.85243 56.7003508 269.85243 67.7787812L269.85243 105 252 105 252 32.0339909 266.279492 32.0339909 269.262151 41.9299284C276.639418 34.6922988 284.01638 31 293.164179 31 310.278913 31 324 43.8503288 324 66.7447902L324 105 305.999847 105zM390.557004 50.5837116C385.386267 45.6709296 379.477511 44.0342632 372.534608 44.0342632 363.965914 44.0342632 359.238295 46.7129786 359.238295 51.3282974 359.238295 56.0911109 363.522489 58.7710632 372.829508 59.3659897 386.568019 60.2593071 404 63.3851451 404 82.8859954 404 95.8361605 393.511229 107 372.681905 107 361.158986 107 349.636375 105.065561 339 93.900794L347.863901 80.9506289C353.034025 86.7554915 364.852151 91.0724194 372.977112 91.221151 379.772412 91.3708103 386.1249 87.7975406 386.1249 82.4388729 386.1249 77.3773592 381.988924 75.2935703 371.647757 74.6986438 357.909247 73.6565948 341.511106 68.5953903 341.511106 51.9232239 341.511106 34.9535942 358.943088 29 372.238786 29 383.613794 29 392.181874 31.2325205 400.60235 38.6752863L390.557004 50.5837116zM466.860371 104L466.860371 65.0840582C466.860371 55.5025117 461.795511 46.8046808 451.814938 46.8046808 441.983514 46.8046808 436.173839 55.5025117 436.173839 65.0840582L436.173839 104 418 104 418 31.1801246 434.833049 31.1801246 436.173839 40.0243228C440.047059 32.6539025 448.537693 30 455.539009 30 464.327941 30 473.116563 33.5385367 477.287461 43.5619409 483.84226 33.2439648 492.333204 30.2954905 501.86695 30.2954905 522.72144 30.2954905 533 42.9727972 533 64.7894863L533 104 514.82678 104 514.82678 64.7894863C514.82678 55.2070213 510.804412 47.1001713 500.972988 47.1001713 491.141254 47.1001713 485.033901 55.5025117 485.033901 65.0840582L485.033901 104 466.860371 104zM480.926527 147.283232C480.926527 146.356856 480.547459 145.650809 479.790555 145.165713 479.033344 144.681238 477.777082 144.253321 476.022386 143.882584 474.267074 143.511537 472.802617 143.041668 471.62809 142.470802 469.052028 141.215952 467.764306 139.397695 467.764306 137.016341 467.764306 135.020329 468.598935 133.351237 470.269119 132.011239 471.939303 130.67062 474.061963 130 476.638025 130 479.383728 130 481.602003 130.685226 483.293469 132.053813 484.984318 133.423022 485.830051 135.197773 485.830051 137.380241L480.671759 137.380241C480.671759 136.381769 480.303177 135.551107 479.567864 134.887634 478.831935 134.224783 477.855116 133.893202 476.638025 133.893202 475.505755 133.893202 474.582296 134.157037 473.867648 134.684397 473.153001 135.212068 472.795523 135.918115 472.795523 136.802227 472.795523 137.60088 473.128017 138.221158 473.793623 138.663369 474.458304 139.10527 475.803088 139.551521 477.82674 139.999637 479.8507 140.448997 481.439149 140.983815 482.592701 141.604402 483.746563 142.22468 484.602474 142.970504 485.161669 143.839389 485.720556 144.710139 486 145.765169 486 147.005102 486 149.087505 485.143472 150.773378 483.43134 152.064586 481.718592 153.354862 479.475333 154 476.701872 154 474.819483 154 473.142205 153.657853 471.670346 152.973559 470.198179 152.289266 469.052028 151.347663 468.231279 150.149994 467.410529 148.951703 467 147.661427 467 146.278545L472.009935 146.278545C472.080875 147.504804 472.540754 148.449514 473.38988 149.112366 474.239006 149.775838 475.364182 150.106798 476.76541 150.106798 478.124073 150.106798 479.157335 149.847002 479.864889 149.326479 480.57275 148.806267 480.926527 148.125081 480.926527 147.283232M501.272877 134.171332C499.871864 134.171332 498.741286 134.671035 497.879922 135.668574 497.018558 136.667046 496.468836 138.057076 496.23045 139.839907L505.958183 139.839907 505.958183 139.454564C505.845553 137.71524 505.390758 136.399171 504.592272 135.507911 503.794091 134.617584 502.687321 134.171332 501.272877 134.171332M501.88212 154C498.646664 154 496.023808 152.962372 494.014468 150.887738 492.004517 148.812482 491 146.050757 491 142.598835L491 141.957737C491 139.647236 491.437092 137.583167 492.312801 135.764599 493.187901 133.946653 494.416763 132.531762 496 131.518995 497.582321 130.50685 499.346865 130 501.293938 130 504.389292 130 506.780477 131.00562 508.468103 133.016237 510.156034 135.026544 511 137.871863 511 141.550641L511 143.64765 496.146816 143.64765C496.300653 145.558203 496.927294 147.06974 498.027044 148.181639 499.126488 149.294782 500.509187 149.85011 502.176058 149.85011 504.515048 149.85011 506.419999 148.887686 507.89091 146.962838L510.642879 149.636618C509.732068 151.019811 508.517246 152.093176 506.997497 152.856092 505.477749 153.618697 503.772724 154 501.88212 154M525.492487 149.85011C526.791681 149.85011 527.869676 149.472847 528.72585 148.716768 529.582335 147.961 530.039044 147.026544 530.096288 145.914645L535 145.914645C534.942756 147.355328 534.493513 148.699055 533.651028 149.946756 532.808854 151.194769 531.66677 152.182054 530.224777 152.909543 528.782472 153.6361 527.226923 154 525.556575 154 522.315745 154 519.74629 152.951806 517.84821 150.85573 515.949196 148.759653 515 145.864923 515 142.170918L515 141.6361C515 138.114878 515.94204 135.294419 517.826432 133.1769 519.710824 131.05907 522.28059 130 525.53542 130 528.289985 130 530.535264 130.802693 532.26939 132.407147 534.004138 134.010669 534.914134 136.117933 535 138.727075L530.096288 138.727075C530.039044 137.400751 529.585757 136.310605 528.736739 135.454461 527.887098 134.598938 526.805992 134.171332 525.492487 134.171332 523.807828 134.171332 522.508633 134.781354 521.595215 136.000466 520.681486 137.219267 520.21731 139.069222 520.20331 141.550641L520.20331 142.385342C520.20331 144.895352 520.656286 146.766749 521.563171 148.000155 522.469433 149.233873 523.779517 149.85011 525.492487 149.85011M554.016929 151.370528C552.503892 153.123105 550.355262 154 547.570115 154 545.081969 154 543.198297 153.284112 541.918794 151.850212 540.639598 150.417223 540 148.344148 540 145.630685L540 131 545.15283 131 545.15283 145.568223C545.15283 148.434506 546.361472 149.867495 548.779066 149.867495 551.281385 149.867495 552.970342 148.984536 553.84717 147.217101L553.84717 131 559 131 559 153.582474 554.144171 153.582474 554.016929 151.370528zM576.97882 136.05131C576.302911 135.939726 575.605515 135.884237 574.887246 135.884237 572.534762 135.884237 570.950274 136.774182 570.133473 138.555891L570.133473 154 565 154 565 131.417228 569.901417 131.417228 570.028188 133.942731C571.267356 131.981214 572.985676 131 575.183148 131 575.91523 131 576.521154 131.097333 577 131.292302L576.97882 136.05131z"/>
    <mask id="transmit_logo_upd-b" fill="#fff">
      <use xlink:href="#transmit_logo_upd-a"/>
    </mask>
    <polygon fill="#1C2644" points="582 154 587 154 587 131 582 131" mask="url(#transmit_logo_upd-b)"/>
    <path fill="#1C2644" d="M600.855843 125L600.855843 130.587275 604.873475 130.587275 604.873475 134.412129 600.855843 134.412129 600.855843 147.243848C600.855843 148.122898 601.0276 148.756258 601.371418 149.145472 601.714931 149.535304 602.328302 149.729756 603.211839 149.729756 603.801067 149.729756 604.397019 149.659074 605 149.517093L605 153.511708C603.835602 153.83703 602.71399 154 601.634248 154 597.70769 154 595.744105 151.811635 595.744105 147.435214L595.744105 134.412129 592 134.412129 592 130.587275 595.744105 130.587275 595.744105 125 600.855843 125zM618.630065 146.462724L623.393227 131 629 131 619.690712 157.248649C618.261732 161.082883 615.837215 163 612.416533 163 611.651244 163 610.806689 162.873294 609.883498 162.618964L609.883498 158.639049 610.879035 158.702096C612.207046 158.702096 613.206671 158.467353 613.877911 157.997255 614.549151 157.526545 615.079475 156.737846 615.469197 155.629322L616.226623 153.671194 608 131 613.671884 131 618.630065 146.462724z" mask="url(#transmit_logo_upd-b)"/>
    <polygon fill="#1C2644" points="551 104 569 104 569 31 551 31" mask="url(#transmit_logo_upd-b)"/>
    <path fill="#1C2644" d="M62.9770007,86.4047083 C60.3177297,87.7422931 57.06768,88.6327821 54.2601773,88.6327821 C48.6460925,88.6327821 44.8046504,85.2167725 44.8046504,78.2360298 L44.8046504,48.8643944 L44.8046504,31 L26.9278429,31 L26.9146463,31 L3.77607279,31 L0.00122759193,31 C0.00122759193,31.0188218 0,31.0370266 0,31.0555399 C0,35.2068355 1.41295832,39.0236578 3.77607279,42.0564424 C4.2302818,42.6393023 4.71579441,43.1962437 5.23721409,43.7177012 C8.18128644,46.6622392 12.1482498,48.5654049 16.5534634,48.8643944 C16.6436914,48.870257 16.7311574,48.8863018 16.8216923,48.8912387 L18.7085011,48.8912387 L26.9146463,48.8912387 L26.9146463,48.8643944 L26.9278429,48.8643944 L26.9278429,78.2360298 C26.9278429,96.5058652 37.269998,105.566267 53.0783131,104.972608 C58.5444731,104.824193 62.8293828,103.932778 68,101.853119 L62.9770007,86.4047083 Z" mask="url(#transmit_logo_upd-b)"/>
    <path fill="#FF2D4E" d="M56.9245051,16.9983053 L56.92204,16.9983053 L56.92204,17.0016947 C56.9744242,17.0013866 57.0255758,16.9983053 57.07796,16.9983053 L56.9245051,16.9983053 Z" mask="url(#transmit_logo_upd-b)"/>
    <path fill="#DD112D" d="M75.4848438,23.0564015 C72.5020986,20.1636511 68.4834447,18.2937618 64.0208301,18 L58.0003109,18 L58.0003109,23.3719908 L58.0003109,23.3744161 L58.0003109,28.6509115 L58.0003109,30.9649299 L58.0003109,30.9767532 L58.0003109,36.2696193 L58.0003109,36.3511692 L58.0003109,36.3896705 L58,39.9987874 C58.0189647,39.9987874 58.0373076,40 58.0559614,40 C62.1632209,40 65.9412405,38.6485138 68.9693767,36.3896705 C68.9874087,36.3766347 69.0057516,36.3639019 69.0240945,36.3511692 C69.0632675,36.3247943 69.1027514,36.2984194 69.14037,36.2696193 C69.7276543,35.8209428 70.2888233,35.3416473 70.81455,34.8265788 C71.97575,33.6879108 72.9693767,32.3906902 73.7752215,30.9767532 C75.0278253,28.7794513 75.8165708,26.2962698 76,23.6484725 L76,23.6478662 L76,23.590569 C75.8305612,23.4104921 75.6626768,23.2288994 75.4848438,23.0564015" mask="url(#transmit_logo_upd-b)"/>
    <path fill="#FF2D4E" d="M76,18.2025803 L76,18.1627387 L76,0 L58.3099083,0 L26.7594157,0 L26.6384202,0 L23.0012222,0 C23.0012222,0.0188227913 23,0.0376455825 23,0.0561546606 C23,4.20061958 24.362116,8.01286224 26.6384202,11.0684287 C26.6799742,11.1248971 26.716945,11.1854437 26.7594157,11.2409709 C27.2116211,11.8335752 27.694992,12.3998275 28.213806,12.9300027 C31.1448914,15.9237677 35.094661,17.8587506 39.4804423,18.1627387 L58.3074639,18.1627387 L58.3099083,18.1627387 L58.3099083,18.2025803 L58.3099083,18.2057174 L58.3099083,18.2151288 L64.2267714,18.2151288 C68.6125527,18.5191169 72.5623224,20.4537861 75.4934077,23.4475511 C75.668179,23.6260539 75.8331729,23.8139681 76,24 L76,18.2054037 L76,18.2025803 L76,18.2025803 Z" mask="url(#transmit_logo_upd-b)"/>
    <path fill="#FF2D4E" d="M56.9245051,18.9983053 L56.92204,18.9983053 L56.92204,19.0016947 C56.9744242,19.0016947 57.0255758,18.9983053 57.07796,18.9983053 L56.9245051,18.9983053 Z" mask="url(#transmit_logo_upd-b)"/>
    <path fill="#1C2644" d="M614.459404 89.6120489C608.819527 89.6120489 604.959918 86.191403 604.959918 79.2018174L604.959918 49.317817 613.204214 49.317817C613.518088 49.3341911 613.834121 49.3434595 614.152004 49.3434595 614.469887 49.3434595 614.78592 49.3341911 615.099794 49.317817 619.634327 49.0802378 623.719938 47.1462383 626.738129 44.1380348 629.987564 40.899049 632 36.4153213 632 31.4595247 632 31.4409879 631.998458 31.4227601 631.998458 31.4042234L604.915519 31.4042234 604.915519 18 587 22.4871261 587 31.4595247 587 31.90626 587 37.6106319 587 47.522843 587 79.2018174C587 97.4951052 597.390236 106.566984 613.272045 105.972573 618.763618 105.82397 623.068756 104.931426 628.263412 102.849133L623.216752 87.3811526C620.545118 88.7204318 617.279651 89.6120489 614.459404 89.6120489M62.9770007 86.4047083C60.3177297 87.7422931 57.06768 88.6327821 54.2601773 88.6327821 48.6460925 88.6327821 44.8046504 85.2167725 44.8046504 78.2360298L44.8046504 48.8643944 44.8046504 31 26.9278429 31 26.9146463 31 3.77607279 31 .00122759193 31C.00122759193 31.0188218 0 31.0370266 0 31.0555399 0 35.2068355 1.41295832 39.0236578 3.77607279 42.0564424 4.2302818 42.6393023 4.71579441 43.1962437 5.23721409 43.7177012 8.18128644 46.6622392 12.1482498 48.5654049 16.5534634 48.8643944 16.6436914 48.870257 16.7311574 48.8863018 16.8216923 48.8912387L18.7085011 48.8912387 26.9146463 48.8912387 26.9146463 48.8643944 26.9278429 48.8643944 26.9278429 78.2360298C26.9278429 96.5058652 37.269998 105.566267 53.0783131 104.972608 58.5444731 104.824193 62.8293828 103.932778 68 101.853119L62.9770007 86.4047083z" mask="url(#transmit_logo_upd-b)"/>
    <path fill="#DD112D" d="M75.4848438,23.0564015 C72.5020986,20.1636511 68.4834447,18.2937618 64.0208301,18 L58.0003109,18 L58.0003109,23.3719908 L58.0003109,23.3744161 L58.0003109,28.6509115 L58.0003109,30.9649299 L58.0003109,30.9767532 L58.0003109,36.2696193 L58.0003109,36.3511692 L58.0003109,36.3896705 L58,39.9987874 C58.0189647,39.9987874 58.0373076,40 58.0559614,40 C62.1632209,40 65.9412405,38.6485138 68.9693767,36.3896705 C68.9874087,36.3766347 69.0057516,36.3639019 69.0240945,36.3511692 C69.0632675,36.3247943 69.1027514,36.2984194 69.14037,36.2696193 C69.7276543,35.8209428 70.2888233,35.3416473 70.81455,34.8265788 C71.97575,33.6879108 72.9693767,32.3906902 73.7752215,30.9767532 C75.0278253,28.7794513 75.8165708,26.2962698 76,23.6484725 L76,23.6478662 L76,23.590569 C75.8305612,23.4104921 75.6626768,23.2288994 75.4848438,23.0564015" mask="url(#transmit_logo_upd-b)"/>
    <path fill="#FF2D4E" d="M76,18.2025803 L76,18.1627387 L76,0 L58.3099083,0 L26.7594157,0 L26.6384202,0 L23.0012222,0 C23.0012222,0.0188227913 23,0.0376455825 23,0.0561546606 C23,4.20061958 24.362116,8.01286224 26.6384202,11.0684287 C26.6799742,11.1248971 26.716945,11.1854437 26.7594157,11.2409709 C27.2116211,11.8335752 27.694992,12.3998275 28.213806,12.9300027 C31.1448914,15.9237677 35.094661,17.8587506 39.4804423,18.1627387 L58.3074639,18.1627387 L58.3099083,18.1627387 L58.3099083,18.2025803 L58.3099083,18.2057174 L58.3099083,18.2151288 L64.2267714,18.2151288 C68.6125527,18.5191169 72.5623224,20.4537861 75.4934077,23.4475511 C75.668179,23.6260539 75.8331729,23.8139681 76,24 L76,18.2054037 L76,18.2025803 L76,18.2025803 Z" mask="url(#transmit_logo_upd-b)"/>
  </g>
</svg>
